<svg xmlns="http://www.w3.org/2000/svg" viewBox="0 0 24 24"><path d="M5.05 3.24a.75.75 0 0 0-1.1 1.02l1.8 1.97A13.47 13.47 0 0 0 .82 11.7a.77.77 0 0 0 0 .6c.02.07.82 1.84 2.58 3.6a11.97 11.97 0 0 0 8.6 3.6c1.68 0 3.34-.34 4.88-1.01l2.07 2.27a.75.75 0 1 0 1.1-1.02l-15-16.5Zm4.44 7.12 3.9 4.3a2.96 2.96 0 0 1-2.93-.08 3 3 0 0 1-.97-4.22ZM12 18a10.3 10.3 0 0 1-7.5-3.12c-.85-.85-1.58-1.82-2.16-2.88a12.2 12.2 0 0 1 4.44-4.63l1.69 1.85a4.5 4.5 0 0 0 5.96 6.57l1.38 1.52c-1.22.46-2.5.7-3.81.69Zm11.18-5.7c-.03.1-.98 2.2-3.13 4.12a.76.76 0 0 1-.8.12.71.71 0 0 1-.25-.19.75.75 0 0 1 .06-1.06 12.28 12.28 0 0 0 2.6-3.29 12.22 12.22 0 0 0-2.17-2.89A10.32 10.32 0 0 0 12 6c-.6 0-1.22.05-1.82.15a.76.76 0 0 1-.85-.91.75.75 0 0 1 .6-.57A11.97 11.97 0 0 1 20.6 8.09a13.19 13.19 0 0 1 2.6 3.61.77.77 0 0 1 0 .6ZM12.56 9.07a.75.75 0 0 1 .28-1.49 4.53 4.53 0 0 1 3.64 4 .75.75 0 0 1-.67.82h-.08a.74.74 0 0 1-.74-.67 3.02 3.02 0 0 0-2.43-2.66Z"/></svg>
