<svg xmlns="http://www.w3.org/2000/svg" viewBox="0 0 24 24"><path d="M23.02 11.78c-.04-.08-.82-1.81-2.56-3.55A11.54 11.54 0 0 0 12 4.7c-4.07 0-6.84 1.92-8.46 3.54-1.6 1.62-2.52 3.47-2.56 3.54a.53.53 0 0 0 0 .46c.04.07.82 1.8 2.56 3.54A11.54 11.54 0 0 0 12 19.3c4.07 0 6.84-1.92 8.46-3.54 1.6-1.62 2.52-3.47 2.56-3.54a.53.53 0 0 0 0-.46ZM12 18.18c-2.94 0-5.51-1.06-7.63-3.17-.9-.89-1.65-1.9-2.24-3.01.59-1.11 1.35-2.12 2.24-3A10.48 10.48 0 0 1 12 5.8c2.94 0 5.51 1.07 7.63 3.18.9.89 1.65 1.9 2.24 3.01-.6 1.14-3.59 6.19-9.87 6.19Zm0-10.5a4.31 4.31 0 1 0 0 8.63 4.31 4.31 0 0 0 0-8.62Zm0 7.5a3.19 3.19 0 1 1 0-6.37 3.19 3.19 0 0 1 0 6.38Z"/></svg>
