<svg xmlns="http://www.w3.org/2000/svg" xml:space="preserve" viewBox="0 0 460.3 460.3"><path d="M230.15 120.94 65.99 256.27c0 .2-.05.48-.15.86-.1.38-.14.66-.14.85v137.04c0 4.95 1.8 9.24 5.42 12.85a17.58 17.58 0 0 0 12.85 5.43H193.6V303.66h73.1V413.3h109.63c4.95 0 9.23-1.81 12.84-5.43 3.62-3.6 5.44-7.9 5.44-12.85V257.98c0-.76-.1-1.33-.3-1.7L230.16 120.93z"/><path d="m457.12 225.44-62.52-51.96V56.98c0-2.65-.86-4.84-2.57-6.56a8.87 8.87 0 0 0-6.57-2.57h-54.81a8.9 8.9 0 0 0-6.57 2.57A8.9 8.9 0 0 0 321.5 57v55.67l-69.66-58.24c-6.08-4.95-13.32-7.43-21.7-7.43-8.37 0-15.6 2.48-21.7 7.43L3.18 225.44a8.3 8.3 0 0 0-3.14 6.13 9.25 9.25 0 0 0 2 6.72l17.7 21.12a9.74 9.74 0 0 0 6 3.15c2.28.19 4.57-.48 6.85-2L230.15 95.82l197.57 164.74c1.52 1.33 3.52 1.99 6 1.99h.85a9.75 9.75 0 0 0 6-3.14l17.7-21.12a9.24 9.24 0 0 0 2-6.72 8.32 8.32 0 0 0-3.15-6.13z"/></svg>
