<svg xmlns="http://www.w3.org/2000/svg" viewBox="0 0 30 24"><path d="M12 22.2c0 .05.006.175.019.375.012.2.015.366.01.497a3.15 3.15 0 0 1-.057.44.621.621 0 0 1-.188.366.567.567 0 0 1-.384.122h-6c-1.488 0-2.76-.528-3.816-1.584C.528 21.359 0 20.087 0 18.6V5.4c0-1.488.528-2.76 1.584-3.816C2.641.528 3.913 0 5.4 0h6c.162 0 .303.06.422.178.119.119.178.26.178.422 0 .05.006.175.019.375.012.2.015.366.01.497a3.149 3.149 0 0 1-.057.44.621.621 0 0 1-.188.366.567.567 0 0 1-.384.122h-6c-.825 0-1.531.294-2.119.881A2.889 2.889 0 0 0 2.4 5.4v13.2c0 .825.294 1.531.881 2.119A2.889 2.889 0 0 0 5.4 21.6h5.85l.216.019.215.056.15.103.132.169.037.253ZM29.4 12c0 .325-.119.606-.356.844l-10.2 10.2A1.153 1.153 0 0 1 18 23.4c-.325 0-.606-.119-.844-.356a1.153 1.153 0 0 1-.356-.844v-5.4H8.4c-.325 0-.606-.119-.844-.356A1.153 1.153 0 0 1 7.2 15.6V8.4c0-.325.119-.606.356-.844.238-.237.519-.356.844-.356h8.4V1.8c0-.325.119-.606.356-.844C17.394.72 17.675.6 18 .6c.325 0 .606.119.844.356l10.2 10.2c.237.238.356.519.356.844Z"/></svg>